<svg width="1024" height="1024" viewBox="0 0 1024 1024" xmlns="http://www.w3.org/2000/svg">
  <!-- Background Circle -->
  <circle cx="512" cy="512" r="512" fill="#708d50"/>
  
  <!-- Heart Shape -->
  <path
    d="M512 768 C512 768, 256 614, 256 410 C256 256, 307 205, 410 256 C461 282, 512 358, 512 358 C512 358, 563 282, 614 256 C717 205, 768 256, 768 410 C768 614, 512 768, 512 768 Z"
    fill="#ffffff"
    stroke="#ffffff"
    stroke-width="8"
  />
  
  <!-- Glasses Frame -->
  <g>
    <!-- Left Lens -->
    <circle
      cx="410"
      cy="410"
      r="82"
      fill="none"
      stroke="#333333"
      stroke-width="25"
    />
    
    <!-- Right Lens -->
    <circle
      cx="614"
      cy="410"
      r="82"
      fill="none"
      stroke="#333333"
      stroke-width="25"
    />
    
    <!-- Bridge -->
    <path
      d="M492 410 L532 410"
      stroke="#333333"
      stroke-width="25"
      fill="none"
    />
    
    <!-- Left Temple -->
    <path
      d="M328 410 L256 390"
      stroke="#333333"
      stroke-width="25"
      fill="none"
      stroke-linecap="round"
    />
    
    <!-- Right Temple -->
    <path
      d="M696 410 L768 390"
      stroke="#333333"
      stroke-width="25"
      fill="none"
      stroke-linecap="round"
    />
    
    <!-- Lens Shine Effect -->
    <circle cx="380" cy="380" r="20" fill="white" opacity="0.7" />
    <circle cx="584" cy="380" r="20" fill="white" opacity="0.7" />
  </g>
  
  <!-- Smile -->
  <path
    d="M410 532 Q462 576, 512 532"
    stroke="#333333"
    stroke-width="20"
    fill="none"
    stroke-linecap="round"
  />
</svg>