<svg width="1284" height="2778" viewBox="0 0 1284 2778" xmlns="http://www.w3.org/2000/svg">
  <!-- Background -->
  <rect width="1284" height="2778" fill="#708d50"/>
  
  <!-- Heart Logo (centered) -->
  <g transform="translate(392, 1139)">
    <!-- Heart Shape -->
    <path
      d="M250 384 C250 384, 125 307, 125 205 C125 128, 153.5 102.5, 205 128 C230.5 141, 250 179, 250 179 C250 179, 281.5 141, 295 128 C358.5 102.5, 375 128, 375 205 C375 307, 250 384, 250 384 Z"
      fill="#ffffff"
      stroke="#ffffff"
      stroke-width="4"
    />
    
    <!-- Glasses -->
    <g>
      <circle cx="205" cy="205" r="41" fill="none" stroke="#333333" stroke-width="12.5"/>
      <circle cx="307" cy="205" r="41" fill="none" stroke="#333333" stroke-width="12.5"/>
      <path d="M246 205 L266 205" stroke="#333333" stroke-width="12.5" fill="none"/>
      <path d="M164 205 L128 195" stroke="#333333" stroke-width="12.5" fill="none" stroke-linecap="round"/>
      <path d="M348 205 L384 195" stroke="#333333" stroke-width="12.5" fill="none" stroke-linecap="round"/>
      <circle cx="190" cy="190" r="10" fill="white" opacity="0.7"/>
      <circle cx="292" cy="190" r="10" fill="white" opacity="0.7"/>
    </g>
    
    <!-- Smile -->
    <path d="M205 266 Q231 288, 256 266" stroke="#333333" stroke-width="10" fill="none" stroke-linecap="round"/>
  </g>
</svg>